HIERARCHY
ROOT Hips
{
	OFFSET -0.001795 -0.223333 0.028219
	CHANNELS 6 Xposition Yposition Zposition Zrotation Yrotation Xrotation 
	JOINT LeftUpLeg
	{
		OFFSET 0.069520 -0.091406 -0.006815
		CHANNELS 3 Zrotation Yrotation Xrotation
		JOINT LeftLeg
		{
			OFFSET 0.034277 -0.375199 -0.004496
			CHANNELS 3 Zrotation Yrotation Xrotation
			JOINT LeftFoot
			{
				OFFSET -0.013596 -0.397961 -0.043693
				CHANNELS 3 Zrotation Yrotation Xrotation
				JOINT LeftToe
				{
					OFFSET 0.026358 -0.055791 0.119288
					CHANNELS 3 Zrotation Yrotation Xrotation
					End Site
					{
						OFFSET 0.000000 0.000000 0.000000
					}
				}
			}
		}
	}
	JOINT RightUpLeg
	{
		OFFSET -0.067670 -0.090522 -0.004320
		CHANNELS 3 Zrotation Yrotation Xrotation
		JOINT RightLeg
		{
			OFFSET -0.038290 -0.382569 -0.008850
			CHANNELS 3 Zrotation Yrotation Xrotation
			JOINT RightFoot
			{
				OFFSET 0.015774 -0.398415 -0.042312
				CHANNELS 3 Zrotation Yrotation Xrotation
				JOINT RightToe
				{
					OFFSET -0.025372 -0.048144 0.123348
					CHANNELS 3 Zrotation Yrotation Xrotation
					End Site
					{
						OFFSET 0.000000 0.000000 0.000000
					}
				}
			}
		}
	}
	JOINT Spine
	{
		OFFSET -0.002533 0.108963 -0.026696
		CHANNELS 3 Zrotation Yrotation Xrotation
		JOINT Spine1
		{
			OFFSET 0.005487 0.135180 0.001092
			CHANNELS 3 Zrotation Yrotation Xrotation
			JOINT Spine2
			{
				OFFSET 0.001457 0.052922 0.025425
				CHANNELS 3 Zrotation Yrotation Xrotation
				JOINT Neck
				{
					OFFSET -0.002778 0.213870 -0.042857
					CHANNELS 3 Zrotation Yrotation Xrotation
					JOINT Head
					{
						OFFSET 0.005152 0.064970 0.051349
						CHANNELS 3 Zrotation Yrotation Xrotation
						End Site
						{
							OFFSET 0.000000 0.000000 0.000000
						}
					}
				}
				JOINT LeftShoulder
				{
					OFFSET 0.078845 0.121749 -0.034090
					CHANNELS 3 Zrotation Yrotation Xrotation
					JOINT LeftArm
					{
						OFFSET 0.090977 0.030469 -0.008868
						CHANNELS 3 Zrotation Yrotation Xrotation
						JOINT LeftForeArm
						{
							OFFSET 0.259612 -0.012772 -0.027456
							CHANNELS 3 Zrotation Yrotation Xrotation
							JOINT LeftHand
							{
								OFFSET 0.249234 0.008986 -0.001171
								CHANNELS 3 Zrotation Yrotation Xrotation
								End Site
								{
									OFFSET 0.000000 0.000000 0.000000
								}
							}
						}
					}
				}
				JOINT RightShoulder
				{
					OFFSET -0.081759 0.118833 -0.038615
					CHANNELS 3 Zrotation Yrotation Xrotation
					JOINT RightArm
					{
						OFFSET -0.096012 0.032551 -0.009143
						CHANNELS 3 Zrotation Yrotation Xrotation
						JOINT RightForeArm
						{
							OFFSET -0.253742 -0.013329 -0.021401
							CHANNELS 3 Zrotation Yrotation Xrotation
							JOINT RightHand
							{
								OFFSET -0.255298 0.007772 -0.005559
								CHANNELS 3 Zrotation Yrotation Xrotation
								End Site
								{
									OFFSET 0.000000 0.000000 0.000000
								}
							}
						}
					}
				}
			}
		}
	}
}
MOTION
Frames: 7
Frame Time: 0.050000
0.000000 0.947843 0.000000 -1.126482 14.681659 2.884586 4.167400 -0.127384 2.046845 -3.294875 0.249474 -1.222371 3.413522 10.888962 10.476803 0.000000 0.000000 0.000000 -1.619447 0.239007 -2.589273 -2.271837 0.171890 -2.187674 2.268234 2.093107 10.454054 0.000000 0.000000 0.000000 0.957171 0.075169 -2.290394 2.193667 -0.910519 -1.591028 -3.144481 -1.919427 5.191673 4.754227 -2.075658 -9.650432 0.000000 0.000000 0.000000 -19.644141 -2.271514 -2.402829 -48.750307 0.592000 -5.638505 -23.941051 -28.613073 6.685298 0.000000 0.000000 0.000000 20.183104 -2.062263 -1.283549 55.513926 5.679139 -3.107572 12.436299 29.343933 4.594041 0.000000 0.000000 0.000000 
0.000014 0.946399 0.000961 -1.097592 14.785936 3.417385 3.548406 -0.084523 2.097619 -2.217830 0.194891 -2.215204 3.464283 10.876369 10.159915 0.000000 0.000000 0.000000 -2.504008 0.226905 -2.694773 -0.719404 -0.031574 -2.888161 2.259967 2.121752 10.318807 0.000000 0.000000 0.000000 0.914533 0.097511 -2.996741 1.755789 -0.749585 -1.145813 -2.478147 -2.570617 4.948220 3.945722 -1.511850 -10.042610 0.000000 0.000000 0.000000 -19.498876 -1.179313 -2.756564 -49.220034 1.720516 -6.190404 -25.573837 -29.810953 7.475356 0.000000 0.000000 0.000000 19.093062 -2.742162 -1.825703 57.128726 5.169342 -3.271918 11.876808 29.714044 4.470879 0.000000 0.000000 0.000000 
-0.000004 0.946400 0.001686 -1.006571 15.344149 3.452775 3.669584 -0.100377 2.055824 -2.425218 0.202280 -2.225573 3.174285 10.446067 10.100881 0.000000 0.000000 0.000000 -2.284831 0.244274 -2.871950 -1.192178 0.046885 -2.355464 1.935281 1.613648 10.052510 0.000000 0.000000 0.000000 0.507575 0.083381 -2.681939 2.512602 -0.913660 -3.026160 -3.152219 -3.220117 6.151798 3.143335 -1.134291 -8.992145 0.000000 0.000000 0.000000 -18.634615 -0.792932 -2.758182 -50.247647 2.306065 -6.728145 -25.957116 -29.411379 7.493791 0.000000 0.000000 0.000000 19.670320 -2.236210 -1.545369 55.877660 4.272617 -3.795725 11.742198 30.975696 4.669805 0.000000 0.000000 0.000000 
-0.000028 0.946010 0.002302 -1.222391 16.205724 3.478643 3.788459 -0.118924 2.069737 -1.984578 0.178348 -2.548566 2.826176 9.860582 9.808201 0.000000 0.000000 0.000000 -2.553694 0.238596 -2.949405 -0.175431 -0.055834 -2.085448 1.582760 1.007512 9.971324 0.000000 0.000000 0.000000 0.713541 0.088358 -2.837403 2.266708 -0.867825 -2.308329 -2.655463 -4.126575 5.284201 2.762252 -1.020253 -8.137783 0.000000 0.000000 0.000000 -18.518215 0.095383 -3.070542 -50.462842 3.442362 -7.188972 -28.009184 -30.741965 8.466760 0.000000 0.000000 0.000000 18.932794 -2.207420 -1.673311 55.896604 3.197390 -4.153643 12.327996 32.615052 5.062582 0.000000 0.000000 0.000000 
-0.000177 0.946173 0.002702 -1.231393 16.621249 3.355065 3.807230 -0.115271 2.315047 -1.858908 0.173328 -2.816427 2.596038 9.536604 9.831130 0.000000 0.000000 0.000000 -2.494623 0.207117 -2.560742 -0.179676 -0.067575 -2.396634 1.432604 0.720551 10.079755 0.000000 0.000000 0.000000 0.487804 0.076692 -2.514342 3.179345 -1.261855 -2.519522 -3.204986 -4.273301 5.124280 2.530141 -0.940883 -7.415418 0.000000 0.000000 0.000000 -18.604948 0.390636 -3.292956 -50.211572 4.215377 -7.424895 -30.354885 -31.119965 9.209268 0.000000 0.000000 0.000000 18.695718 -2.961255 -2.043120 55.349299 1.948595 -4.651634 14.095492 34.919322 6.058328 0.000000 0.000000 0.000000 
-0.000461 0.946192 0.002890 -1.431398 16.951167 3.281052 3.906401 -0.129972 2.231738 -1.539625 0.155755 -2.708223 2.486385 9.342605 9.700292 0.000000 0.000000 0.000000 -2.523093 0.214749 -2.695147 0.328218 -0.114037 -2.031146 1.304215 0.495706 10.070330 0.000000 0.000000 0.000000 0.628246 0.076185 -2.491392 3.173014 -1.267281 -2.425700 -2.882301 -4.632905 5.083266 2.316894 -0.824077 -7.272416 0.000000 0.000000 0.000000 -18.953698 0.544945 -3.372110 -49.796085 5.137572 -7.723174 -33.152977 -33.384802 10.833850 0.000000 0.000000 0.000000 18.257555 -2.891166 -2.041522 54.848081 0.713207 -5.143702 16.175920 37.280398 7.213626 0.000000 0.000000 0.000000 
-0.000895 0.946051 0.002678 -1.392279 16.882684 3.218944 3.776062 -0.116124 2.283774 -1.358195 0.147287 -2.673618 2.532082 9.396435 9.665061 0.000000 0.000000 0.000000 -2.507121 0.216637 -2.715321 0.259577 -0.101185 -1.903488 1.315087 0.536650 9.958282 0.000000 0.000000 0.000000 0.573016 0.064011 -2.107710 3.458732 -1.386427 -2.541756 -3.228067 -4.606681 5.100771 2.279903 -0.768106 -7.462729 0.000000 0.000000 0.000000 -19.022445 1.064639 -3.670519 -48.789945 6.151000 -7.918985 -38.085527 -36.899207 13.790378 0.000000 0.000000 0.000000 18.162789 -3.274855 -2.231462 54.529205 -0.384138 -5.593805 18.768168 40.065436 8.830071 0.000000 0.000000 0.000000 
